<svg width="42" height="42" viewBox="0 0 42 42" fill="none" xmlns="http://www.w3.org/2000/svg">
<path d="M24.7916 41.8334H17.2083C16.7332 41.8335 16.2723 41.6712 15.902 41.3733C15.5318 41.0755 15.2746 40.6601 15.1729 40.1959L14.325 36.2709C13.1938 35.7753 12.1213 35.1555 11.127 34.423L7.29996 35.6417C6.84697 35.7862 6.35819 35.7714 5.9148 35.5997C5.4714 35.428 5.10007 35.1098 4.86246 34.698L1.06246 28.1334C0.827349 27.7212 0.739093 27.2414 0.812134 26.7725C0.885175 26.3036 1.11519 25.8733 1.46455 25.5522L4.4333 22.8438C4.29829 21.617 4.29829 20.379 4.4333 19.1522L1.46455 16.4501C1.11469 16.1288 0.884368 15.6982 0.811315 15.2288C0.738261 14.7594 0.826815 14.2792 1.06246 13.8667L4.85413 7.298C5.09174 6.88616 5.46307 6.56798 5.90646 6.39631C6.34986 6.22463 6.83864 6.20979 7.29163 6.35425L11.1187 7.573C11.627 7.198 12.1562 6.848 12.702 6.53133C13.2291 6.2355 13.7708 5.96675 14.325 5.72716L15.175 1.80633C15.2762 1.34216 15.5329 0.926514 15.9028 0.628308C16.2726 0.330102 16.7332 0.167248 17.2083 0.166748H24.7916C25.2667 0.167248 25.7273 0.330102 26.0972 0.628308C26.467 0.926514 26.7238 1.34216 26.825 1.80633L27.6833 5.72925C28.8138 6.22487 29.8856 6.84465 30.8791 7.57716L34.7083 6.35841C35.161 6.21449 35.6493 6.2296 36.0923 6.40125C36.5352 6.5729 36.9062 6.89077 37.1437 7.30216L40.9354 13.8709C41.4187 14.7188 41.252 15.7917 40.5333 16.4522L37.5645 19.1605C37.6995 20.3873 37.6995 21.6253 37.5645 22.8522L40.5333 25.5605C41.252 26.223 41.4187 27.2938 40.9354 28.1417L37.1437 34.7105C36.9061 35.1223 36.5348 35.4405 36.0914 35.6122C35.648 35.7839 35.1592 35.7987 34.7062 35.6542L30.8791 34.4355C29.8857 35.1675 28.8138 35.7866 27.6833 36.2813L26.825 40.1959C26.7234 40.6597 26.4664 41.0749 26.0966 41.3727C25.7268 41.6705 25.2664 41.833 24.7916 41.8334ZM11.875 29.8105L13.5833 31.0605C13.9687 31.3438 14.3687 31.6042 14.7854 31.8417C15.177 32.0688 15.577 32.273 15.9916 32.4584L17.9354 33.3105L18.8875 37.6667H23.1166L24.0687 33.3084L26.0125 32.4563C26.8604 32.0813 27.6666 31.6167 28.4145 31.0688L30.1229 29.8188L34.377 31.173L36.4916 27.5105L33.1937 24.5042L33.427 22.3959C33.5312 21.473 33.5312 20.5417 33.427 19.6209L33.1937 17.5126L36.4937 14.5001L34.377 10.8355L30.125 12.1897L28.4145 10.9397C27.6662 10.389 26.8609 9.92036 26.0125 9.54175L24.0687 8.68966L23.1166 4.33341H18.8875L17.9291 8.69175L15.9916 9.54175C15.142 9.91385 14.3364 10.3792 13.5895 10.9292L11.8791 12.1792L7.62913 10.8251L5.51038 14.5001L8.8083 17.5022L8.57496 19.6126C8.4708 20.5355 8.4708 21.4667 8.57496 22.3876L8.8083 24.4959L5.51038 27.5022L7.62496 31.1647L11.875 29.8105V29.8105ZM20.9916 29.3334C18.7815 29.3334 16.6619 28.4554 15.0991 26.8926C13.5363 25.3298 12.6583 23.2102 12.6583 21.0001C12.6583 18.7899 13.5363 16.6703 15.0991 15.1075C16.6619 13.5447 18.7815 12.6667 20.9916 12.6667C23.2018 12.6667 25.3214 13.5447 26.8842 15.1075C28.447 16.6703 29.325 18.7899 29.325 21.0001C29.325 23.2102 28.447 25.3298 26.8842 26.8926C25.3214 28.4554 23.2018 29.3334 20.9916 29.3334ZM20.9916 16.8334C20.1757 16.8342 19.378 17.0746 18.6974 17.5247C18.0169 17.9748 17.4834 18.6148 17.1633 19.3653C16.8432 20.1158 16.7504 20.9437 16.8966 21.7465C17.0427 22.5492 17.4214 23.2913 17.9855 23.8808C18.5496 24.4703 19.2744 24.8812 20.0699 25.0626C20.8654 25.2439 21.6966 25.1876 22.4605 24.9008C23.2244 24.614 23.8872 24.1093 24.3668 23.4492C24.8464 22.7891 25.1216 22.0027 25.1583 21.1876V22.0209V21.0001C25.1583 19.895 24.7193 18.8352 23.9379 18.0538C23.1565 17.2724 22.0967 16.8334 20.9916 16.8334Z" fill="black"/>
</svg>
